<svg xmlns="http://www.w3.org/2000/svg" viewBox="0 0 40 40"><defs><style>.cls-1{fill:#cb9d81;}</style></defs><title>HMO Brochure Download</title><g id="Layer_2" data-name="Layer 2"><g id="Layer_1-2" data-name="Layer 1"><path class="cls-1" d="M30,9V5H27V0H13V5H10V9H0V40H40V9ZM15,2H25V5H15ZM10,38H2V11h8Zm18,0H23V30H17v8H12V7H28V38Zm10,0H30V11h8Z"/><rect class="cls-1" x="15" y="20" width="10" height="2"/><rect class="cls-1" x="15" y="25" width="10" height="2"/><rect class="cls-1" x="15" y="15" width="10" height="2"/><rect class="cls-1" x="15" y="10" width="10" height="2"/><rect class="cls-1" x="4" y="25" width="4" height="2"/><rect class="cls-1" x="4" y="30" width="4" height="2"/><rect class="cls-1" x="4" y="20" width="4" height="2"/><rect class="cls-1" x="4" y="15" width="4" height="2"/><rect class="cls-1" x="32" y="25" width="4" height="2"/><rect class="cls-1" x="32" y="30" width="4" height="2"/><rect class="cls-1" x="32" y="20" width="4" height="2"/><rect class="cls-1" x="32" y="15" width="4" height="2"/></g></g></svg>