<svg xmlns="http://www.w3.org/2000/svg" viewBox="0 0 40 40"><defs><style>.cls-1{fill:#cb9d81;}</style></defs><title>Purchased Conditon Brochure</title><g id="Layer_2" data-name="Layer 2"><g id="Layer_1-2" data-name="Layer 1"><rect class="cls-1" x="29" y="8" width="6" height="1"/><path class="cls-1" d="M33,29V11h4V8h3V2H5V0H0V10H5V8H6V38H0v2H40V38H14V8H27v3h4V29ZM12,31.46,8,34.13V31.54l4-2.67Zm0-20L8,14.13V9h4Zm0,15L8,29.13V26.54l4-2.67Zm0-5L8,24.13V21.54l4-2.67Zm0-5L8,19.13V16.54l4-2.67ZM8,38V36.54l4-2.67V38ZM6,6V4H38V6H6ZM29,9V8h6V9Z"/></g></g></svg>